<svg xmlns="http://www.w3.org/2000/svg" viewBox="0 0 218.01 201.08"><defs><style>.cls-1{fill:#fff4d1;}.cls-2{fill:#fba92c;}</style></defs><g id="Layer_2" data-name="Layer 2"><g id="Layer_1-2" data-name="Layer 1"><path class="cls-1" d="M185.79,46.56C182.62,54,187,57.49,195,61.63c18.14,9.41,25.2,25.95,22.42,45.89C215,124.59,205,136.35,188.71,142.46c-2.58,1-3.85,1.84-3.39,5.28,3,22.57-6.37,40.74-26,49.22-16.33,7-32.17,5.17-46.23-6.17-3.1-2.49-4.78-2.49-7.78,0-14.21,11.94-35,13.33-51.17,3.78A44,44,0,0,1,33.2,148.22c.71-3.52-.58-4.77-3.5-5.77C10.83,136-.16,119.06,0,100.16S11.13,64.84,30.28,58.23c2.93-1,3.37-2.43,2.91-5.16C27.88,22,52.63-3.74,83.88.49A43.34,43.34,0,0,1,106.55,11c2.18,1.88,3.19,1.61,5.31-.12C136.09-8.82,169.73-.88,182.48,27.48,185,33,185.76,37.13,185.79,46.56Zm-50.27,54.15c0-15.79-11.24-27.38-26.57-27.35a27.41,27.41,0,0,0-27.13,27.06c-.06,14.78,12.29,27.17,26.69,27C124.71,127.22,135.51,116.77,135.52,100.71ZM76.47,40.85c.24-4-2.17-6.07-5.66-6.11-3.22,0-5.9,2-5.93,5.53s2,6.13,5.88,5.92C73.94,46,76.58,44.77,76.47,40.85Zm87.39,35.42c3.89-.21,6-2.26,6.14-5.62.1-3.53-2-6.12-5.73-6-3.44.15-5.84,1.92-5.78,6S161.08,75.64,163.86,76.27Zm-11.21,7A5.75,5.75,0,1,0,159,89.33C159.06,85.86,157.16,83.4,152.65,83.27Zm-95.2,55.09c4.2.15,6.57-1.82,6.53-5.52,0-3.24-1.84-5.76-5.64-5.61-3.49.13-5.71,2-5.73,5.53,0,3.25,1.06,6,4.84,5.6Zm89.16,18.56c-.25-3.16-2-5.44-5.44-5.55-3.78-.12-5.71,2.1-5.74,5.87s2.35,5.6,5.57,5.6,5.45-2.05,5.61-5.92Zm-3-91.67c-.07-3.43-1.69-5.72-5.25-5.9s-5.6,1.76-5.91,5.27c-.32,3.73,1.35,6.08,5.29,6,3.44,0,5.66-1.61,5.92-5.37ZM73.89,75.38c4-.07,5.77-1.94,5.75-5.62s-2.19-5.52-5.64-5.5S68.51,66.41,68.5,70,70.61,75.35,73.89,75.38ZM42.67,92.84c0-4.32-2.35-6.29-5.6-6.27s-5.59,2-5.55,5.74,2.37,5.62,5.63,5.71C40.64,98.11,42.5,95.8,42.67,92.84Zm33.91,26.33c-2.7.52-5.06,2.11-5,5.72s2.1,5.46,5.7,5.46,5.45-2,5.43-5.61S80.84,119.24,76.58,119.17Zm3.9,38.21c.28,2,1.36,4.88,4.44,4.5a5.44,5.44,0,0,0,4.68-6c-.19-3.06-2.25-4.45-5-4.38C81.67,151.58,80.33,153.57,80.48,157.38Zm28.91-92a4,4,0,0,0,4-4.06,5,5,0,0,0,0-.53c-.2-2.66-1.71-4.62-4.8-4.54s-4.95,1.8-4.77,5C103.88,64.1,105.8,65.44,109.39,65.33Zm43.33,58.81c.44,2.76,1.9,4.84,4.71,4.88a4.62,4.62,0,0,0,5-4.21,5.21,5.21,0,0,0,0-.79c0-2.87-1.94-4.59-4.78-4.59S153.35,121.5,152.72,124.14Zm-28.18,18.53c-.17-3.06-2.1-4.77-4.7-4.88a4.55,4.55,0,0,0-4.91,5c.08,2.78,2,4.42,4.93,4.4s4.43-1.71,4.68-4.52Zm1.89-13.91c-.19,2.51,1.74,4.07,4.52,4.1s4.69-1.61,4.64-4.72-1.63-4.76-4.58-4.8-4.54,1.67-4.58,5.42Zm20-28.7c-.54-2-1.6-3.69-4.19-3.78s-4.2,1.24-4.35,3.67c-.16,2.69,1.45,4.27,4.23,4.28,2.57,0,3.8-1.56,4.32-4.17Zm-5-18.29c-.4-2.42-1.76-4.12-4.2-4.1s-3.83,1.68-3.75,4.25,1.52,4.17,4,4A3.93,3.93,0,0,0,141.41,82a1.93,1.93,0,0,0,0-.24ZM57.07,107.41c-2.28.56-3.85,1.88-3.55,4.44.26,2.2,1.29,4.48,3.83,4.16a4.42,4.42,0,0,0,3.77-4.51,3.83,3.83,0,0,0-3.55-4.09Zm8.65-25c-2.71.3-3.8,2.18-3.8,4.47s1.46,3.53,3.93,3.4c2.72-.14,3.85-1.58,3.76-4.19s-1.75-3.4-3.89-3.72Zm91.59,20.38c-2.36.59-4,1.75-3.72,4.44a3.87,3.87,0,0,0,7.72-.63l0-.22c-.22-2.27-1.76-3.46-4-3.63Zm-93.78,51c-.13-2.51-1.29-4-3.6-4.24-2.71-.22-4,1.67-4.1,4-.07,2,1.3,4.35,3.15,4.47,2.42.08,4-2,4.55-4.32ZM89.64,70.22c.25,2.36,1.49,3.87,3.78,3.93a3.85,3.85,0,1,0,0-7.7h0C91.09,66.51,89.91,68,89.64,70.22Zm99.9,9.44c-.48-1.75-1.59-3.34-4-3.31a3.86,3.86,0,1,0,0,7.72h.26c2.3-.14,3.56-1.65,3.71-4.4ZM81.42,112.41c-.24-2.32-1.51-3.81-3.78-3.9a3.85,3.85,0,0,0,0,7.7h0C80,116.19,81.11,114.65,81.42,112.41Zm-.8-16.55c-.14-2.27-1.26-3.66-3.73-3.62s-3.93,1.36-4,3.62A3.92,3.92,0,0,0,76.57,100h.49C79.33,100,80.48,98.23,80.62,95.86ZM139,41.23c2.83.12,3.93-1.78,4-4a3.55,3.55,0,0,0-3.43-3.67,3.7,3.7,0,0,0-.47,0c-2.23.06-3.57,1.56-3.62,3.91S136.6,41.14,139,41.23Zm-38.91-5c-2.41.06-3.61,1.3-3.64,3.71s1.34,3.94,3.49,4a3.68,3.68,0,0,0,4-3.3,3.76,3.76,0,0,0,0-.75,3.62,3.62,0,0,0-3.57-3.67h-.28Zm80.81,84.48c-2.24.21-3.8,1.35-4,3.64s1.09,3.74,3.44,4c2.58.24,4.13-.85,4.19-3.61.09-2.51-1.48-3.51-3.6-4ZM101.44,137.5c-.53-2-1.59-3.77-3.91-3.7s-4.14,1.49-3.9,4.13c.21,2.24,1.56,3.49,4,3.42s3.48-1.56,3.84-3.85Zm11-8.8c-2,.38-3.7,1.19-3.86,3.64s1.29,3.73,3.54,3.9a3.42,3.42,0,0,0,3.95-2.81,3.24,3.24,0,0,0,.05-.62c.14-2.25-1.28-3.65-3.67-4.11Z"/><path class="cls-2" d="M135.52,100.71c0,16.06-10.81,26.51-27,26.71-14.4.17-26.75-12.22-26.69-27A27.41,27.41,0,0,1,109,73.36C124.28,73.33,135.54,84.92,135.52,100.71Z"/><path class="cls-2" d="M76.47,40.85c.11,3.92-2.53,5.17-5.71,5.34-3.93.21-5.9-2.35-5.88-5.92s2.71-5.57,5.93-5.53C74.3,34.78,76.71,36.84,76.47,40.85Z"/><path class="cls-2" d="M163.86,76.27c-2.78-.63-5.31-1.64-5.37-5.57s2.34-5.85,5.78-6c3.74-.17,5.83,2.42,5.73,6C169.91,74,167.75,76.06,163.86,76.27Z"/><path class="cls-2" d="M152.65,83.27c4.51.13,6.41,2.59,6.32,6.06a5.7,5.7,0,1,1-6.32-6.06Z"/><path class="cls-2" d="M57.45,138.36c-3.78.37-4.85-2.36-4.84-5.6,0-3.56,2.24-5.4,5.73-5.53,3.8-.15,5.61,2.37,5.64,5.61C64,136.54,61.65,138.51,57.45,138.36Z"/><path class="cls-2" d="M146.61,156.92c-.16,3.87-2.35,5.93-5.61,5.92s-5.61-1.87-5.57-5.6,2-6,5.74-5.87C144.66,151.48,146.36,153.76,146.61,156.92Z"/><path class="cls-2" d="M143.66,65.25c-.26,3.71-2.48,5.37-5.87,5.41-3.94,0-5.61-2.31-5.29-6,.31-3.51,2.41-5.46,5.91-5.27S143.59,61.82,143.66,65.25Z"/><path class="cls-2" d="M73.89,75.38c-3.28,0-5.4-1.67-5.39-5.39s1.94-5.71,5.5-5.73,5.62,1.73,5.64,5.5S77.88,75.31,73.89,75.38Z"/><path class="cls-2" d="M42.67,92.84c-.17,3-2,5.27-5.52,5.18-3.26-.09-5.58-2-5.63-5.71s2.33-5.71,5.55-5.74S42.68,88.52,42.67,92.84Z"/><path class="cls-2" d="M76.58,119.17c4.26.07,6.11,2,6.14,5.57s-1.74,5.61-5.43,5.61-5.63-1.93-5.7-5.46S73.88,119.69,76.58,119.17Z"/><path class="cls-2" d="M80.48,157.38c-.15-3.81,1.19-5.8,4.15-5.87,2.72-.07,4.78,1.32,5,4.38a5.44,5.44,0,0,1-4.68,6C81.84,162.26,80.76,159.33,80.48,157.38Z"/><path class="cls-2" d="M109.39,65.33c-3.59.11-5.51-1.23-5.67-4.18-.18-3.15,1.57-4.87,4.77-5s4.6,1.88,4.8,4.54A4,4,0,0,1,110,65.28,3.81,3.81,0,0,1,109.39,65.33Z"/><path class="cls-2" d="M152.72,124.14c.63-2.64,2-4.68,4.91-4.68s4.76,1.72,4.78,4.59a4.62,4.62,0,0,1-4.2,5,5.34,5.34,0,0,1-.8,0C154.62,129,153.16,126.9,152.72,124.14Z"/><path class="cls-2" d="M124.54,142.67c-.25,2.81-1.66,4.52-4.68,4.55s-4.85-1.62-4.93-4.4c-.09-3,1.88-5.16,4.91-5C122.44,137.9,124.37,139.61,124.54,142.67Z"/><path class="cls-2" d="M126.43,128.76c0-3.72,1.59-5.46,4.58-5.42s4.54,1.8,4.58,4.8a4.3,4.3,0,0,1-4.64,4.72C128.15,132.84,126.24,131.27,126.43,128.76Z"/><path class="cls-2" d="M146.44,100.06c-.52,2.61-1.75,4.17-4.31,4.17-2.78,0-4.39-1.59-4.23-4.28.15-2.43,1.82-3.75,4.35-3.67S145.9,98,146.44,100.06Z"/><path class="cls-2" d="M141.4,81.77a3.91,3.91,0,0,1-3.65,4.17h-.35c-2.46.14-3.9-1.46-4-4s1.25-4.22,3.75-4.25S141,79.35,141.4,81.77Z"/><path class="cls-2" d="M57.07,107.41a3.83,3.83,0,0,1,4,3.65c0,.14,0,.29,0,.44A4.42,4.42,0,0,1,57.35,116c-2.54.32-3.57-2-3.83-4.16C53.22,109.29,54.79,108,57.07,107.41Z"/><path class="cls-2" d="M65.72,82.37c2.14.32,3.8,1.14,3.89,3.68s-1,4-3.76,4.19c-2.47.13-3.94-1.09-3.93-3.4S63,82.67,65.72,82.37Z"/><path class="cls-2" d="M157.31,102.75c2.21.17,3.75,1.36,4,3.59a3.87,3.87,0,1,1-7.66,1.07l0-.22C153.32,104.5,155,103.34,157.31,102.75Z"/><path class="cls-2" d="M63.53,153.7C63,156,61.4,158.1,59,157.94c-1.85-.12-3.22-2.44-3.15-4.47.08-2.34,1.39-4.23,4.1-4C62.24,149.65,63.4,151.19,63.53,153.7Z"/><path class="cls-2" d="M89.64,70.22c.27-2.23,1.45-3.71,3.8-3.77a3.85,3.85,0,1,1,0,7.7h0C91.13,74.09,89.89,72.58,89.64,70.22Z"/><path class="cls-2" d="M189.54,79.66c-.15,2.75-1.41,4.26-3.67,4.4a3.86,3.86,0,1,1-.55-7.7h.26C188,76.32,189.06,77.91,189.54,79.66Z"/><path class="cls-2" d="M81.42,112.41c-.31,2.24-1.43,3.78-3.81,3.8a3.85,3.85,0,0,1,0-7.7h0C79.91,108.6,81.18,110.09,81.42,112.41Z"/><path class="cls-2" d="M80.62,95.86c-.14,2.37-1.29,4.12-3.56,4.13a3.92,3.92,0,0,1-4.13-3.7,3.09,3.09,0,0,1,0-.43c0-2.26,1.61-3.58,4-3.62S80.48,93.59,80.62,95.86Z"/><path class="cls-2" d="M139,41.23c-2.43-.09-3.6-1.39-3.55-3.78s1.39-3.85,3.62-3.91A3.56,3.56,0,0,1,143,36.72a3.69,3.69,0,0,1,0,.47C143,39.45,141.86,41.35,139,41.23Z"/><path class="cls-2" d="M100.13,36.24A3.6,3.6,0,0,1,104,39.56c0,.12,0,.24,0,.36A3.67,3.67,0,0,1,100.8,44a3.57,3.57,0,0,1-.8,0c-2.15-.09-3.53-1.62-3.49-4S97.71,36.29,100.13,36.24Z"/><path class="cls-2" d="M180.94,120.72c2.11.51,3.68,1.51,3.62,4-.06,2.76-1.61,3.85-4.19,3.61-2.35-.22-3.65-1.63-3.44-4S178.69,120.92,180.94,120.72Z"/><path class="cls-2" d="M101.47,137.5c-.36,2.29-1.26,3.78-3.78,3.85s-3.82-1.18-4-3.42c-.24-2.64,1.5-4.06,3.9-4.13S100.94,135.5,101.47,137.5Z"/><path class="cls-2" d="M112.45,128.7c2.39.46,3.81,1.86,3.7,4.11a3.44,3.44,0,0,1-3.38,3.48,4.32,4.32,0,0,1-.62,0c-2.25-.17-3.71-1.44-3.54-3.9S110.48,129.08,112.45,128.7Z"/></g></g></svg>