<svg xmlns="http://www.w3.org/2000/svg" viewBox="0 0 173.39 188.34"><defs><style>.cls-1{fill:#009379;}.cls-2{fill:#fff4d1;}.cls-3{fill:#bdadd5;}</style></defs><g id="Layer_2" data-name="Layer 2"><g id="Layer_1-2" data-name="Layer 1"><path class="cls-1" d="M72,123.8c-5.41,7.49-11.21,14.52-17.13,21.45-10.79,12.64-24.46,16-37.36,9C8,149.12,3,140.69,3,130.19c-.06-10.87,4.63-19.85,14.85-24.74C31.11,99.1,45.51,97.25,60,95.6a148.37,148.37,0,0,1-37-4.42c-9.24-2.33-16.45-7.12-20.48-16a27.77,27.77,0,0,1,41.58-34c8.15,5.93,14.74,13.47,21,21.27a6.62,6.62,0,0,0,2.79,2.29c-2.3-5.55-4.81-11-6.85-16.68-2.93-8.11-6.29-16.2-4.62-25.2C59.11,8.2,73.78-2.19,88.13.4a28.08,28.08,0,0,1,23.08,32.21,128.23,128.23,0,0,1-6.71,24,10.91,10.91,0,0,0-.9,5.38c2.88-3.77,5.79-7.53,8.64-11.33a101.74,101.74,0,0,1,11.19-12.1A27.44,27.44,0,0,1,154,33.12c9.78,4.23,17.08,15.18,16.49,25.9-.65,11.79-6.34,20.67-17.45,25.22-12.43,5.1-25.58,7.24-38.93,8.5a141.9,141.9,0,0,1,38.45,5.18c9.87,2.84,16.52,9.06,19.65,18.87a27.74,27.74,0,0,1-10.79,30.86c-9.8,6.89-23.51,6.39-33.16-1.07-9.17-7.09-16.28-16.1-23.9-24.81,2.57,5.85,5.45,11.57,7.65,17.56,3.24,8.86,7.17,17.67,4.74,27.59-3.5,14.31-17.69,23.72-31.79,20.94-15.42-3-24.92-16.14-22.83-31.31,1.27-9.15,4.19-17.81,7.38-26.41C70.29,128,71.13,125.91,72,123.8Z"/><path class="cls-2" d="M75.64,116.39c-4.06,5.62-8.41,10.89-12.85,16.09-8.09,9.48-18.34,12-28,6.76a19.78,19.78,0,0,1-10.85-18.06c0-8.15,3.47-14.88,11.14-18.55,10-4.76,20.75-6.15,31.6-7.38A112.15,112.15,0,0,1,38.9,91.93c-6.93-1.75-12.33-5.34-15.36-12A20.83,20.83,0,0,1,54.71,54.41c6.11,4.45,11,10.1,15.76,16a5.07,5.07,0,0,0,2.09,1.72C70.84,68,69,63.85,67.43,59.62c-2.2-6.09-4.72-12.15-3.46-18.9,2-11,13-18.77,23.8-16.83A21.06,21.06,0,0,1,105.09,48a96.35,96.35,0,0,1-5,18,8.07,8.07,0,0,0-.67,4c2.16-2.83,4.34-5.65,6.48-8.5a75.08,75.08,0,0,1,8.39-9.07,20.57,20.57,0,0,1,22.92-4.11c7.34,3.18,12.81,11.39,12.37,19.42-.49,8.85-4.75,15.51-13.09,18.93-9.32,3.82-19.18,5.43-29.2,6.37a106.57,106.57,0,0,1,28.8,4c7.41,2.13,12.39,6.78,14.74,14.15a20.8,20.8,0,0,1-8.09,23.14,21.22,21.22,0,0,1-24.87-.8c-6.88-5.32-12.21-12.07-17.93-18.61,1.93,4.39,4.09,8.68,5.73,13.17,2.44,6.65,5.39,13.25,3.57,20.7-2.63,10.72-13.27,17.78-23.85,15.7C73.83,162.17,66.7,152.33,68.27,141a97.58,97.58,0,0,1,5.53-19.81C74.4,119.56,75,118,75.64,116.39Z"/><path class="cls-3" d="M80.81,106c-2.17,3-4.49,5.81-6.85,8.59-4.32,5-9.79,6.4-14.95,3.6a10.55,10.55,0,0,1-5.79-9.63c0-4.35,1.86-7.94,5.94-9.9C64.47,96.14,70.23,95.4,76,94.75A60.44,60.44,0,0,1,61.2,93c-3.69-.93-6.58-2.85-8.19-6.41A11.11,11.11,0,0,1,69.64,73a44.54,44.54,0,0,1,8.41,8.5,2.64,2.64,0,0,0,1.12.92c-.92-2.22-1.93-4.41-2.74-6.67-1.17-3.25-2.52-6.48-1.85-10.08a11.14,11.14,0,0,1,21.93,3.91,51.73,51.73,0,0,1-2.68,9.61,4.28,4.28,0,0,0-.36,2.15c1.15-1.51,2.31-3,3.46-4.53A39.45,39.45,0,0,1,101.4,72a11,11,0,0,1,12.22-2.19,11.16,11.16,0,0,1,6.6,10.36c-.26,4.72-2.53,8.27-7,10.09a54,54,0,0,1-15.57,3.4A56.69,56.69,0,0,1,113,95.7a10.91,10.91,0,0,1,7.86,7.55,11.12,11.12,0,0,1-4.32,12.35,11.33,11.33,0,0,1-13.26-.43c-3.67-2.84-6.51-6.44-9.56-9.93,1,2.34,2.18,4.63,3.06,7,1.29,3.54,2.87,7.07,1.89,11a11.12,11.12,0,0,1-21.84-4.11,50.23,50.23,0,0,1,3-10.57C80.14,107.71,80.48,106.87,80.81,106Z"/></g></g></svg>