<?xml version="1.0" encoding="UTF-8"?>
<svg id="Layer_2" data-name="Layer 2" xmlns="http://www.w3.org/2000/svg" viewBox="0 0 225.73 224.22">
  <defs>
    <style>
      .cls-1 {
        fill: #f9d57e;
      }

      .cls-2 {
        fill: #f5a5c8;
      }
    </style>
  </defs>
  <g id="Layer_1-2" data-name="Layer 1">
    <g>
      <g>
        <path class="cls-2" d="m92.08,132.32c-.24.23-.48.45-.71.68-5.32,5.3-10.68,10.56-16.15,15.7-2.16,2.03-4.33,4.05-6.48,6.08-1.94,1.83-3.9,3.66-5.92,5.42-3.54,3.08-6.98,6.29-10.64,9.22-4.19,3.35-8.2,7.01-13.25,9.14-3.09,1.3-6.4,2.07-9.64,1.54-7.23-1.19-13.22-4.54-17.12-11.09-1.64-2.76-2.57-5.67-2.99-8.82-.64-4.81.83-9.16,2.96-13.31,2.13-4.16,5.66-6.91,9.8-8.89,4.6-2.2,9.44-3.81,14.2-5.6,7.15-2.7,14.48-4.89,21.72-7.32,2.18-.73,4.38-1.37,6.58-2.03,4.53-1.37,9.07-2.73,13.61-4.09,2.67-.8,5.44-1.24,8.06-2.22.13.5.46.88.53,1.46.41,3.66,1.59,7.09,3.22,10.38.65,1.31,1.79,2.32,2.24,3.76Z"/>
        <path class="cls-2" d="m86.32,115.22c-.64-.45-1.36-.3-2.04-.22-3.06.33-6.13.51-9.19.75-5,.39-10.01.45-15,.78-6.59.44-13.18.87-19.78,1.03-5.72.13-11.44-.02-17.16.05-3.51.04-6.83-.74-10.01-2.06-4.51-1.88-7.7-5.26-10.19-9.4-2.6-4.34-3.47-9.09-2.64-13.95,1.42-8.27,6.21-14.05,14-17.26,2.63-1.09,5.42-1.66,8.27-1.49,3.8.23,7.42,1.34,11.01,2.56,6.17,2.1,12.25,4.44,18.33,6.78,11.71,4.51,23.28,9.37,34.68,14.61,1.01.46,2.06.82,2.97,1.48.3.22.51-.25.77-.04-.03.41,0,.75-.27,1.2-2.03,3.45-3.32,7.16-3.73,11.17-.14,1.35.49,2.69-.02,4.03Z"/>
        <path class="cls-2" d="m91.55,97.36c-5.72-3.6-11.06-7.75-16.46-11.79-5.57-4.17-11.14-8.36-16.65-12.61-6.17-4.76-12.2-9.69-17.9-15.02-4.11-3.84-6.42-8.59-7.2-14.1-.77-5.46,1.03-10.32,4.04-14.68,4.19-6.08,10.23-9.34,17.56-9.39,7.85-.05,14.28,3.21,18.75,9.89,4.71,7.03,8.76,14.44,12.84,21.84,4.1,7.43,7.9,15.02,11.8,22.56,2.09,4.04,3.99,8.19,5.95,12.29.14.29.16.63.24.95-.04.2-.08.43-.32.49-3.3.83-5.95,2.78-8.43,4.97-1.57,1.38-3.01,2.89-4.24,4.6Z"/>
        <path class="cls-2" d="m108.02,142.87c.06,2.64-.48,5.23-.67,7.85-.19,2.54-.57,5.04-.85,7.56-.28,2.55-.49,5.12-.94,7.66-.39,2.24-.5,4.54-.78,6.8-.37,2.91-.84,5.81-1.17,8.73-.29,2.51-.69,5-1.03,7.5-.55,3.96-1.08,7.91-1.89,11.83-.51,2.45-.85,4.94-1.75,7.29-2.48,6.48-7.15,10.59-13.7,12.68-2.09.66-4.19,1.34-6.39,1.46-1.97.11-3.87-.4-5.77-.87-7.49-1.86-12.5-6.53-15.35-13.62-.96-2.39-1.78-4.89-1.7-7.46.1-3.07.59-6.11,2.01-8.95,2.56-5.1,5.41-10.04,8.17-15.02,2.45-4.42,5.46-8.49,7.79-12.97,1.53-2.94,3.48-5.61,5.28-8.35,2.53-3.86,4.9-7.83,7.57-11.62,1.93-2.74,3.95-5.44,5.74-8.28.25-.4.51-.8.76-1.2.59-.07.99.1,1.32.66.35.59.79,1.18,1.32,1.62,3.05,2.54,6.31,4.73,10.2,5.81.64.18,1.42.18,1.82.9Z"/>
        <path class="cls-2" d="m106.79,86.1c-.93-3.19-1.9-6.36-2.6-9.62-.87-4.05-1.74-8.1-2.67-12.14-.88-3.82-1.89-7.62-2.75-11.44-.95-4.25-1.79-8.52-2.69-12.78-.65-3.07-1.18-6.16-1.69-9.24-.52-3.18-1.21-6.38-1.07-9.63.42-9.51,6.81-18.58,17.64-20.8,4.43-.91,8.77-.46,12.93,1.36,6.4,2.8,10.58,7.48,12.53,14.25,1.26,4.4.71,8.71.02,13.08-.48,3.06-.82,6.14-1.32,9.2-.47,2.89-1.05,5.76-1.62,8.63-.77,3.92-1.49,7.86-2.4,11.76-.66,2.83-1.43,5.64-1.97,8.5-.88,4.68-2.1,9.28-3.23,13.91-.37,1.51-.79,3.01-1.27,4.49-.13.41-.21.78-.19,1.19-1.16.11-2.04-.71-3.14-.93-4.36-.88-8.68-.81-12.97.33-.58.15-1.05-.01-1.56-.1Z"/>
        <path class="cls-2" d="m128.65,140.6c1.7,2.08,3.03,4.42,4.56,6.62,3.86,5.54,7.46,11.25,11.14,16.92,5.04,7.76,9.96,15.61,14.47,23.69,1.82,3.26,3.57,6.58,4.23,10.34.41,2.32.25,4.64.04,6.96-.26,2.89-1.26,5.54-2.52,8.13-.24.49-.57.86-.86,1.27-3.49,4.98-8.42,7.67-14.24,9.01-1.35.31-2.72.55-4.08.67-1.53.13-3.05-.38-4.56-.71-3.7-.8-7.03-2.52-9.84-4.9-3.81-3.25-6.32-7.46-7.29-12.47-.91-4.68-1.87-9.36-2.73-14.05-.65-3.52-1.37-7.04-1.7-10.6-.35-3.79-1.34-7.47-1.62-11.28-.28-3.89-1.1-7.74-1.66-11.61-.15-1.04-.1-2.11-.19-3.16-.31-3.59-1.06-7.14-1.07-10.76,0-.44-.17-.87-.26-1.31.3-.15.59-.31.94-.24,2.31.5,4.63.62,6.97.22,2.26-.38,4.54-.59,6.7-1.52,1.14-.49,2.2-1.33,3.56-1.23Z"/>
        <path class="cls-2" d="m127.15,87.36c1-2.09,2.05-4.16,2.99-6.27,1.7-3.82,3.62-7.53,5.45-11.29.66-1.36,1.18-2.79,1.84-4.15.36-.75,1.09-1.26,1.46-2.04,2.36-5.05,5.06-9.93,7.63-14.87,1.88-3.61,3.98-7.13,6.02-10.67,2.3-3.98,4.84-7.8,8.55-10.6,2.13-1.61,4.58-2.73,7.22-3.4,1.37-.35,2.74-.51,4.15-.47,2.27.06,4.5-.14,6.78.44,5.46,1.4,9.76,4.33,12.9,8.98,1.61,2.37,2.84,4.94,3.33,7.78.58,3.43.55,6.85-.13,10.29-1.08,5.47-4.66,9.26-8.56,12.77-4.01,3.6-8.14,7.06-12.32,10.46-9.88,8.01-19.98,15.74-30.29,23.2-1.04.75-2.16,1.38-3.24,2.06-.74-.37-1.31-1.08-1.65-1.68-1.13-1.95-2.83-3.33-4.33-4.91-1.81-1.9-3.88-3.42-6.31-4.45-.56-.24-1.34-.34-1.47-1.17Z"/>
        <path class="cls-2" d="m142.88,124.4c3.53.81,6.98,1.87,10.44,2.91,4.3,1.29,8.61,2.54,12.89,3.85,5.09,1.56,10.21,3.05,15.24,4.8,4.94,1.71,9.94,3.25,14.77,5.28,1.44.6,2.91,1.15,4.32,1.83,5.06,2.45,8.6,6.33,10.85,11.48,1.14,2.62,1.66,5.4,1.57,8.14-.19,6.15-1.94,11.78-6.59,16.22-2.61,2.49-5.73,3.9-9.06,5-6.55,2.17-12.56.88-18.28-2.72-4.61-2.9-8.62-6.52-12.72-10.04-5.25-4.51-10.44-9.1-15.68-13.62-3.53-3.05-6.7-6.48-10.15-9.62-2.54-2.31-5.31-4.38-7.61-6.96-.48-.54-1-1.05-1.5-1.58.38-1.17,1.51-1.65,2.33-2.35,3.4-2.92,6.22-6.23,8.06-10.36.34-.76.29-1.73,1.1-2.26Z"/>
        <path class="cls-2" d="m142.34,102.55c1.48-1.07,3.23-1.6,4.87-2.35,3.52-1.62,7.04-3.24,10.6-4.77,3.92-1.69,7.89-3.25,11.82-4.91,5.05-2.13,10.13-4.2,15.25-6.17,4.74-1.82,9.43-3.84,14.43-4.8,6.98-1.33,13.41.01,18.89,4.8,3.22,2.81,5.64,6.19,6.73,10.36.77,2.95,1.01,5.94.64,9.02-.45,3.68-1.48,7.15-3.51,10.2-1.17,1.75-2.72,3.3-4.54,4.5-3.63,2.4-7.51,4.16-11.86,4.68-1.68.2-3.39.21-5.09.22-6.6.02-13.19.13-19.78-.04-3.85-.1-7.71-.11-11.55-.41-3.71-.28-7.41-.47-11.12-.47-3.09,0-6.14-.36-9.2-.68-1.75-.18-3.52-.48-5.3-.31.05-.36.06-.74.14-1.09,1.2-5.23.63-10.36-.91-15.42-.24-.79-.63-1.52-.51-2.38Z"/>
      </g>
      <path class="cls-1" d="m142.34,102.55c-.12.86.27,1.6.51,2.38,1.53,5.07,2.11,10.19.91,15.42-.08.36-.1.73-.14,1.09-.38.95-.82,1.89-.73,2.96-.81.53-.77,1.51-1.1,2.26-1.84,4.13-4.66,7.44-8.06,10.36-.82.7-1.95,1.18-2.33,2.35-1.08.03-2.12.16-2.74,1.22-1.35-.09-2.42.74-3.56,1.23-2.16.93-4.44,1.14-6.7,1.52-2.34.4-4.66.28-6.97-.22-.35-.08-.64.08-.94.24-.74-.57-1.59-.59-2.46-.49-.4-.72-1.18-.72-1.82-.9-3.89-1.08-7.15-3.27-10.2-5.81-.53-.44-.97-1.02-1.32-1.62-.33-.56-.74-.73-1.32-.66-.18-.72-.45-1.36-1.27-1.56-.44-1.43-1.58-2.45-2.24-3.76-1.64-3.29-2.81-6.72-3.22-10.38-.06-.57-.39-.96-.53-1.46.46-.44.2-1,.22-1.5.51-1.34-.12-2.68.02-4.03.4-4.01,1.7-7.72,3.73-11.17.27-.45.24-.79.27-1.2.71-.24,1.15-.7,1.22-1.47,1.22-1.71,2.67-3.22,4.24-4.6,2.48-2.19,5.13-4.15,8.43-4.97.24-.06.27-.28.32-.49.83-.26,1.83-.19,2.26-1.19.52.08.98.25,1.56.1,4.29-1.14,8.6-1.21,12.97-.33,1.09.22,1.97,1.04,3.14.93.86.34,1.74.63,2.69.55.13.83.91.93,1.47,1.17,2.44,1.03,4.51,2.56,6.31,4.45,1.5,1.58,3.21,2.96,4.33,4.91.34.59.91,1.31,1.65,1.68-.34.82.43,2.44,1.42,2.98Z"/>
    </g>
  </g>
</svg>