<svg xmlns="http://www.w3.org/2000/svg" viewBox="0 0 226.58 225.06"><defs><style>.cls-1{fill:#bdadd5;}.cls-2{fill:#fba92c;}</style></defs><g id="Layer_2" data-name="Layer 2"><g id="Layer_1-2" data-name="Layer 1"><path class="cls-1" d="M92.53,133.48c-5.61,3.21-9.34,8.51-14,12.71-11.22,10-21.71,20.9-33.84,29.88C31,186.14,13.54,179.81,9.37,163.48c-2.63-10.28,3.22-21.19,14-25.64C35,133,47,129.15,59,125.32c8.83-2.82,17.88-5,27.69-9-3.58-1.17-6-.54-8.28-.34q-27.6,2.47-55.31,2.25C7.24,118-2.46,106.12.55,90.75,2.77,79.4,15.24,71.52,26.75,74.52c13,3.4,25.39,8.73,37.8,13.84,8.73,3.59,17.37,7.39,26,11.1-1.68,3.32-3.49,6.65-4,10.35C85.42,118.45,86.86,126.52,92.53,133.48Z"/><path class="cls-1" d="M91.33,97.61a529.38,529.38,0,0,1-50-38.22C33.76,52.82,31,44.47,34.52,34.72c3.23-8.95,9.89-13.92,19.21-14.61,9-.66,16,3.36,20.82,11,8.08,12.74,14.92,26.17,22,39.49,3,5.67,4.93,11.91,9,17A39.84,39.84,0,0,0,91.33,97.61Z"/><path class="cls-1" d="M108.71,143.51c-2,15.83-4,31.65-6.18,47.46-.82,6.08-1.61,12.2-3.74,18-4.25,11.57-17.07,17-29.09,12.35-10.84-4.18-16.79-17.83-11.86-28.51C65.93,175.29,77,159.47,87.4,143.33c1.89-2.92,4-5.71,5.33-8.94C98.16,137.25,102,143,108.71,143.51Z"/><path class="cls-1" d="M106.47,87.36c-.42-7-3-13.58-4.53-20.36-3-13.31-6.12-26.56-8.2-40C92.26,17.37,95,9.32,103.16,4c7.91-5.26,16.55-5.27,24.45-.09,8.12,5.33,10.88,13.35,9.56,23-2.81,20.45-7.76,40.45-12.46,60.51A29.67,29.67,0,0,0,106.47,87.36Z"/><path class="cls-1" d="M129.16,141.39c10.39,15.76,21.07,31.34,30.26,47.85,6.54,11.73,5.48,22-2.88,29.94-11.95,11.27-32.11,5.55-36.09-10.42-5.27-21.15-7.39-42.8-9.69-64.41C117.13,144.84,123.15,143.16,129.16,141.39Z"/><path class="cls-1" d="M125.64,87.76c2.2,0,2.4-1.92,3.11-3.36,8.32-16.79,16.46-33.69,26.32-49.66,5.08-8.23,12.71-12.31,22.32-10.88S193.31,31,195.74,40.53c2.11,8.28-.19,15.52-6.36,21.31-15,14.09-31.52,26.33-48.21,38.35-.8-.55-2-.93-2.32-1.68C136.38,92.48,130.49,90.79,125.64,87.76Z"/><path class="cls-1" d="M142.89,124.29c6.77,2.31,12.28,4,15.8,5,12.81,3.79,26.22,7.65,40.9,13.88,8.6,3.64,13.37,10.23,13.81,19.52.43,8.88-3.43,16-11.19,20.17a22.42,22.42,0,0,1-13.71,2.86,22.09,22.09,0,0,1-10.2-4.35c-8-5.77-25.24-20.86-46.91-41.67a10.29,10.29,0,0,0,1.25-.86,10.08,10.08,0,0,0,2.11-2.31C135.55,135.38,138.68,130.75,142.89,124.29Z"/><path class="cls-1" d="M142.58,103c18-8.09,36-16.16,54.75-22.28,8.9-2.91,16.82-.8,23.14,6,6.17,6.65,7.79,14.56,4.3,23.07a22.12,22.12,0,0,1-8.48,10.69,21.68,21.68,0,0,1-10.94,3.1c-9.78.42-31.95,0-61.27-1.58A49.34,49.34,0,0,0,142.58,103Z"/><circle class="cls-2" cx="115.42" cy="114.92" r="29.5"/></g></g></svg>