<?xml version="1.0" encoding="UTF-8"?>
<svg id="Layer_2" data-name="Layer 2" xmlns="http://www.w3.org/2000/svg" viewBox="0 0 136.25 99.92">
  <defs>
    <style>
      .cls-1 {
        fill: #2d2d2d;
      }
    </style>
  </defs>
  <g id="Layer_1-2" data-name="Layer 1">
    <g>
      <path class="cls-1" d="m97.5,68.43c-1.41-3.43-3.4-4.18-6.99-3.7-5.77.77-11.69.48-17.55.63-1.57.04-3.14,0-5.15,0,.66,3.21,1.5,5.84,1.68,8.51.47,7.31.69,14.63.94,21.95.09,2.76-1.22,3.94-4.14,3.88-8.11-.15-16.22.08-24.33-.18-1.47-.05-3.64-1.37-4.21-2.66-6.28-14.39-9.09-29.33-5.21-44.85.93-3.72,2.93-7.5,5.41-10.42,3.67-4.33,9.02-4.86,13.41-1.25,3.87,3.18,7.08,7.26,10.14,11.28,1.42,1.87,2.67,2.81,5.04,3.07,7.93.85,15.85,1.84,23.71,3.16,2.74.46,5.28,2.05,7.95,3.02.99.36,2.09.5,3.15.61,1.48.16,3.02.01,4.45.34,4.36.99,5,2.63,2.58,6.24,3.06.72,2.85.69,3.25-2.09.21-1.47,1.29-2.82,1.99-4.22.27-.53.81-1.05.81-1.57.06-5.81.04-11.61.04-17.42-.34-.09-.67-.19-1.01-.28-1.71,4.01-3.45,8.01-5.13,12.04-1.91,4.6-6.03,5.48-9.39,1.81-.51-.55-.37-2.1-.01-2.98,5.73-14.1,11.56-28.15,17.31-42.24.79-1.93,1.83-2.49,3.72-1.56,1.12.55,2.58.67,3.39,1.48.83.82,1.81,2.69,1.43,3.34-6,10.2-4.83,21.39-4.78,32.43.02,4.12-.15,8.24.12,12.34.07,1.02,1.43,2.62,2.39,2.79,5.14.89,5.16.76,5.49,6.77,1.63,0,3.31.02,4.99,0,1.73-.02,3.23.04,3.26,2.46.03,2.45-1.27,2.88-3.31,2.87-10.86-.04-21.71-.02-32.57-.02q-4.85,0-4.87,5c-.01,5.74-.06,11.48,0,17.22.03,2.21-.45,3.52-3.09,3.48-2.62-.04-3.08-1.38-3.06-3.57.06-6.24-.07-12.48.06-18.71.05-2.63-.97-3.6-3.52-3.45-2.24.13-4.49-.04-6.74.05-2.07.08-3.32-.86-2.75-2.84.29-1.01,1.76-2.33,2.74-2.37,5.48-.24,10.97-.12,16.46-.14.58,0,1.15-.14,1.88-.23Z"/>
      <path class="cls-1" d="m54.93,0c10.86-.03,19.57,8.15,19.61,18.43.04,10.26-8.62,18.51-19.49,18.56-10.69.05-19.49-8.39-19.43-18.63C35.67,8.32,44.39.03,54.93,0Z"/>
      <path class="cls-1" d="m26.63,99.64c-3.82,1.14-5.52-1.32-6.97-5.07C11.96,74.63,5.5,54.32,1.48,33.31.55,28.44.29,23.42,0,18.46c-.06-1.09,1.1-2.25,1.69-3.38,1.01.63,2.46,1.02,2.95,1.93,3.41,6.35,7.08,12.63,9.81,19.28,7.64,18.61,13.52,37.81,17.66,57.52,1.23,5.84,1.26,5.84-5.48,5.83Z"/>
    </g>
  </g>
</svg>